Middle Men 2009 BDRip XVID AC3 HQ Hive-CM8


CM8 Doing It Right The First Time :D

Why download a touched up rip of a rip BRrip
Get the real deal BDRip
Enjoy

Source US Bluray

Video: 720x304 @bitrate 1700 2pass
Audio: DTS to AC3 5.1 @448
Sample: yes included
Subs: yes english in srt /subs[/b]

 
http://www.imdb.com/title/tt1251757/


General
Complete name                    : Middle.Men.2009.BDRip.XVID.AC3.HQ.Hive-CM8.avi
Format                           : AVI
Format/Info                      : Audio Video Interleave
File size                        : 1.69 GiB
Duration                         : 1h 52mn
Overall bit rate                 : 2 159 Kbps
Writing application              : Nandub v1.0rc2
Writing library                  : Nandub build 1853/release

Video
ID                               : 0
Format                           : MPEG-4 Visual
Format profile                   : Advanced Simple@L5
Format settings, BVOP            : Yes
Format settings, QPel            : Yes
Format settings, GMC             : No warppoints
Format settings, Matrix          : Default (H.263)
Muxing mode                      : Packed bitstream
Codec ID                         : XVID
Codec ID/Hint                    : XviD
Duration                         : 1h 52mn
Bit rate                         : 1 701 Kbps
Width                            : 720 pixels
Height                           : 304 pixels
Display aspect ratio             : 2.40:1
Frame rate                       : 23.976 fps
Color space                      : YUV
Chroma subsampling               : 4:2:0
Bit depth                        : 8 bits
Scan type                        : Progressive
Bits/(Pixel*Frame)               : 0.324
Stream size                      : 1.33 GiB (79%)
Writing library                  : XviD 1.2.1 (UTC 2008-12-04)

Audio
ID                               : 1
Format                           : AC-3
Format/Info                      : Audio Coding 3
Mode extension                   : CM (complete main)
Codec ID                         : 2000
Duration                         : 1h 52mn
Bit rate mode                    : Constant
Bit rate                         : 448 Kbps
Channel(s)                       : 6 channels
Channel positions                : Front: L C R, Side: L R, LFE
Sampling rate                    : 48.0 KHz
Bit depth                        : 16 bits
Stream size                      : 359 MiB (21%)
Alignment                        : Split accross interleaves
Interleave, duration             : 42 ms (1.00 video frame)
Interleave, preload duration     : 500 ms



Luke Wilson - Jack Harris
Giovanni Ribisi - Wayne Beering
Gabriel Macht - Buck Dolby
James Caan - Jerry Haggerty
Jacinda Barrett - Diana Harris
Kevin Pollak - Curt Allmans
Laura Ramsey - Audrey Dawns
Rade Sherbedgia - Nikita Sokoloff
Terry Crews - James
Kelsey Grammer - Frank Griffin 


Chronicles Jack Harris, one of the pioneers of internet commerce, 
as he wrestles with his morals and struggles not to drown in a sea of conmen, 
mobsters, drug addicts, and pornstars.  
